<svg width="1067" height="60" viewBox="0 0 1067 60" fill="none" xmlns="http://www.w3.org/2000/svg">
<path d="M101.731 15.0751C101.731 17.2372 99.9896 18.979 97.8275 18.979C95.6654 18.979 93.9236 17.2372 93.9236 15.0751C93.9236 12.9129 95.6053 11.1712 97.8275 11.1712C100.05 11.2312 101.731 12.973 101.731 15.0751ZM85.6355 22.9429V23.9039C85.6355 23.9039 83.7736 21.5015 79.8097 21.5015C73.2632 21.5015 68.1582 26.4865 68.1582 33.3934C68.1582 40.2402 73.2032 45.2853 79.8097 45.2853C83.8337 45.2853 85.6355 42.8228 85.6355 42.8228V43.8438C85.6355 44.3243 85.9958 44.6847 86.4763 44.6847H91.3411V22.1021H86.4763C85.9958 22.1021 85.6355 22.5225 85.6355 22.9429ZM85.6355 37.4174C84.7346 38.7387 82.9328 39.8799 80.7707 39.8799C76.9268 39.8799 73.9839 37.4775 73.9839 33.3934C73.9839 29.3093 76.9268 26.9069 80.7707 26.9069C82.8727 26.9069 84.7946 28.1081 85.6355 29.3694V37.4174ZM94.9446 22.1021H100.71V44.6847H94.9446V22.1021ZM181.07 21.5015C177.106 21.5015 175.244 23.9039 175.244 23.9039V11.2312H169.478V44.6847H174.343C174.824 44.6847 175.184 44.2643 175.184 43.8438V42.8228C175.184 42.8228 177.046 45.2853 181.01 45.2853C187.556 45.2853 192.661 40.2402 192.661 33.3934C192.661 26.5465 187.556 21.5015 181.07 21.5015ZM180.109 39.8198C177.887 39.8198 176.145 38.6787 175.244 37.3574V29.3093C176.145 28.1081 178.067 26.8468 180.109 26.8468C183.953 26.8468 186.896 29.2492 186.896 33.3333C186.896 37.4174 183.953 39.8198 180.109 39.8198ZM166.475 31.2913V44.7447H160.71V31.952C160.71 28.2282 159.508 26.7267 156.265 26.7267C154.524 26.7267 152.722 27.6276 151.581 28.9489V44.6847H145.815V22.1021H150.379C150.86 22.1021 151.22 22.5225 151.22 22.9429V23.9039C152.902 22.1622 155.124 21.5015 157.346 21.5015C159.869 21.5015 161.971 22.2222 163.653 23.6637C165.695 25.3453 166.475 27.5075 166.475 31.2913ZM131.821 21.5015C127.857 21.5015 125.995 23.9039 125.995 23.9039V11.2312H120.23V44.6847H125.094C125.575 44.6847 125.935 44.2643 125.935 43.8438V42.8228C125.935 42.8228 127.797 45.2853 131.761 45.2853C138.307 45.2853 143.413 40.2402 143.413 33.3934C143.473 26.5465 138.368 21.5015 131.821 21.5015ZM130.86 39.8198C128.638 39.8198 126.896 38.6787 125.995 37.3574V29.3093C126.896 28.1081 128.818 26.8468 130.86 26.8468C134.704 26.8468 137.647 29.2492 137.647 33.3333C137.647 37.4174 134.704 39.8198 130.86 39.8198ZM115.245 21.5015C116.986 21.5015 117.887 21.8018 117.887 21.8018V27.1471C117.887 27.1471 113.083 25.5255 110.08 28.9489V44.7447H104.314V22.1021H109.179C109.659 22.1021 110.02 22.5225 110.02 22.9429V23.9039C111.101 22.6426 113.443 21.5015 115.245 21.5015ZM55.3655 42.6426C55.0653 41.9219 54.765 41.1411 54.4647 40.4805C53.9842 39.3994 53.5037 38.3784 53.0833 37.4174L53.0232 37.3574C48.8791 28.3483 44.4347 19.2192 39.7501 10.2102L39.5699 9.84985C39.0895 8.94895 38.609 7.98799 38.1285 7.02703C37.5279 5.94595 36.9273 4.8048 35.9664 3.72372C34.0445 1.32132 31.2818 0 28.3388 0C25.3359 0 22.6332 1.32132 20.6513 3.6036C19.7504 4.68468 19.0897 5.82583 18.4891 6.90691C18.0086 7.86787 17.5282 8.82883 17.0477 9.72973L16.8675 10.0901C12.2429 19.0991 7.73849 28.2282 3.5944 37.2372L3.53434 37.3574C3.11393 38.3183 2.63345 39.3393 2.15298 40.4204C1.85268 41.0811 1.55238 41.8018 1.25209 42.5826C0.471314 44.8048 0.231077 46.9069 0.531374 49.0691C1.19203 53.5736 4.19499 57.3574 8.33909 59.039C9.90063 59.6997 11.5222 60 13.2039 60C13.6844 60 14.285 59.9399 14.7654 59.8799C16.7474 59.6396 18.7894 58.979 20.7714 57.8378C23.2338 56.4565 25.5761 54.4745 28.2187 51.5916C30.8613 54.4745 33.2637 56.4565 35.6661 57.8378C37.648 58.979 39.6901 59.6396 41.672 59.8799C42.1525 59.9399 42.7531 60 43.2336 60C44.9152 60 46.5969 59.6997 48.0984 59.039C52.3025 57.3574 55.2454 53.5135 55.9061 49.0691C56.3866 46.967 56.1463 44.8649 55.3655 42.6426ZM28.2788 45.7658C25.0356 41.6817 22.9335 37.8378 22.2128 34.5946C21.9125 33.2132 21.8524 32.012 22.0326 30.9309C22.1527 29.97 22.5131 29.1291 22.9936 28.4084C24.1347 26.7868 26.0566 25.7658 28.2788 25.7658C30.501 25.7658 32.4829 26.7267 33.564 28.4084C34.0445 29.1291 34.4048 29.97 34.525 30.9309C34.7051 32.012 34.6451 33.2733 34.3448 34.5946C33.6241 37.7778 31.522 41.6216 28.2788 45.7658ZM52.2425 48.5886C51.822 51.7117 49.72 54.4144 46.7771 55.6156C45.3356 56.2162 43.7741 56.3964 42.2126 56.2162C40.7111 56.036 39.2096 55.5556 37.648 54.6547C35.4859 53.4535 33.3238 51.5916 30.8013 48.8288C34.7652 43.964 37.1676 39.5195 38.0685 35.5556C38.4889 33.6937 38.5489 32.012 38.3688 30.4505C38.1285 28.9489 37.588 27.5676 36.7472 26.3664C34.8853 23.6637 31.7622 22.1021 28.2788 22.1021C24.7953 22.1021 21.6723 23.7237 19.8104 26.3664C18.9696 27.5676 18.4291 28.9489 18.1888 30.4505C17.9486 32.012 18.0086 33.7538 18.4891 35.5556C19.39 39.5195 21.8524 44.024 25.7563 48.8889C23.2939 51.6517 21.0717 53.5135 18.9095 54.7147C17.348 55.6156 15.8465 56.0961 14.345 56.2763C12.7234 56.4565 11.1619 56.2162 9.78051 55.6757C6.8376 54.4745 4.73553 51.7718 4.31511 48.6486C4.13493 47.1471 4.25505 45.6456 4.85565 43.964C5.03582 43.3634 5.33612 42.7628 5.63642 42.042C6.05683 41.0811 6.53731 40.0601 7.01778 39.039L7.07784 38.9189C11.2219 29.97 15.6663 20.8408 20.2909 11.952L20.4711 11.5916C20.9515 10.6907 21.432 9.72973 21.9125 8.82883C22.393 7.86787 22.9335 6.96697 23.5942 6.18619C24.8554 4.74474 26.5371 3.96396 28.3989 3.96396C30.2607 3.96396 31.9424 4.74474 33.2037 6.18619C33.8643 6.96697 34.4048 7.86787 34.8853 8.82883C35.3658 9.72973 35.8463 10.6907 36.3267 11.5916L36.5069 11.952C41.0714 20.9009 45.5158 30.03 49.6599 38.979V39.039C50.1404 40 50.5608 41.0811 51.0413 42.042C51.3416 42.7628 51.6419 43.3634 51.822 43.964C52.3025 45.5255 52.4827 47.027 52.2425 48.5886Z" fill="#424147"/>
<path d="M301.393 30.322L297.025 34.6863L292.661 30.322L297.025 25.9578L301.393 30.322ZM311.983 19.7247L319.462 27.2074L323.826 22.8431L311.983 11L300.14 22.8431L304.504 27.2074L311.983 19.7247ZM326.944 25.9578L322.58 30.322L326.944 34.6863L331.305 30.322L326.944 25.9578ZM311.983 40.9193L304.504 33.4404L300.14 37.8009L311.983 49.644L323.826 37.8009L319.462 33.4404L311.983 40.9193ZM311.983 34.6863L316.347 30.322L311.983 25.9578L307.619 30.322L311.983 34.6863ZM358.041 35.1053V35.0449C358.041 32.1983 356.531 30.775 354.073 29.8388C355.583 28.9893 356.859 27.6566 356.859 25.2669V25.2065C356.859 21.8767 354.194 19.7247 349.864 19.7247H340.033V40.9193H350.113C354.896 40.9193 358.049 38.9826 358.049 35.1053H358.041ZM352.227 26.0446C352.227 27.6189 350.925 28.2871 348.867 28.2871H344.575V23.8134H349.177C351.144 23.8134 352.235 24.5986 352.235 25.9917L352.227 26.0446ZM353.409 34.5239C353.409 36.0982 352.167 36.8231 350.105 36.8231H344.575V32.1681H349.962C352.355 32.1681 353.416 33.0478 353.416 34.4711L353.409 34.5239ZM367.838 40.9193V19.7247H363.16V40.9193H367.838ZM392.902 40.9193V19.7247H388.285V32.776L378.356 19.7247H374.056V40.9193H378.658V27.4452L388.919 40.9193H392.902ZM418.728 40.9193L409.63 19.5737H405.33L396.25 40.9193H401.003L402.948 36.1662H411.91L413.847 40.9193H418.728ZM410.253 32.0473H404.605L407.421 25.1763L410.253 32.0473ZM440.953 40.9193V19.7247H436.336V32.776L426.403 19.7247H422.107V40.9193H426.705V27.4452L436.97 40.9193H440.953ZM465.02 37.4989L462.057 34.5013C460.392 36.0114 458.908 36.9816 456.485 36.9816C452.853 36.9816 450.339 33.9614 450.339 30.322V30.2616C450.339 26.6298 452.913 23.6624 456.485 23.6624C458.603 23.6624 460.26 24.5684 461.906 26.0521L464.862 22.6317C462.895 20.695 460.505 19.3623 456.507 19.3623C449.999 19.3623 445.457 24.2966 445.457 30.3107V30.3711C445.457 36.4569 450.089 41.2704 456.326 41.2704C460.407 41.2817 462.827 39.8282 465.005 37.4989H465.02ZM484.916 40.9193V36.7665H473.394V32.3078H483.387V28.155H473.394V23.8738H484.75V19.721H468.762V40.9155L484.916 40.9193Z" fill="#424147"/>
<path fill-rule="evenodd" clip-rule="evenodd" d="M599.627 41.0705C601.091 41.0705 602.462 40.8028 603.753 40.283C603.753 40.3302 606.383 44.4095 606.431 44.4253C604.103 45.6725 601.495 46.3067 598.855 46.2681C590.775 46.2838 584.916 40.9445 584.916 32.4552C584.916 23.9028 591.059 18.595 598.855 18.595C601.611 18.595 603.8 19.1935 605.99 20.359L603.47 24.6116C602.147 24.0918 600.792 23.8555 599.375 23.8555C594.602 23.8555 590.901 26.8953 590.901 32.4552C590.901 37.7157 594.476 41.0705 599.627 41.0705ZM619.991 18.595C627.929 18.595 633.678 24.2178 633.678 32.4552C633.678 40.6453 627.929 46.2681 619.976 46.2681C612.101 46.2681 606.352 40.6453 606.352 32.4552C606.352 24.2178 612.101 18.595 619.991 18.595ZM619.991 23.6665C615.566 23.6665 612.337 27.0843 612.337 32.4552C612.337 37.7787 615.566 41.1965 619.991 41.1965C624.527 41.1965 627.709 37.7787 627.709 32.4552C627.709 27.0843 624.527 23.6665 619.991 23.6665ZM637.442 45.6696V19.1935H643.364V45.6538H637.442V45.6696ZM636.655 11.0506C636.716 10.1087 637.134 9.22537 637.823 8.57996C638.511 7.93456 639.42 7.57542 640.364 7.57542C641.308 7.57542 642.216 7.93456 642.905 8.57996C643.594 9.22537 644.012 10.1087 644.073 11.0506C644.073 12.0397 643.686 12.9894 642.994 13.6961C642.302 14.4027 641.361 14.8101 640.372 14.8307C639.383 14.8101 638.442 14.4027 637.75 13.6961C637.058 12.9894 636.67 12.0397 636.671 11.0506H636.655ZM648.53 20.863C652.409 19.4049 656.514 18.6373 660.658 18.595C667.43 18.595 671.714 21.1623 671.714 28.6279V45.6696H665.871V29.1791C665.871 25.3518 663.493 23.9815 660.201 23.9815C658.106 23.9815 656.012 24.265 654.452 24.7533V45.6538H648.546V20.863H648.53ZM676.676 5.01831H682.598V19.9022C683.858 19.2407 686.299 18.595 688.63 18.595C696.284 18.595 702.017 23.4775 702.017 31.9826C702.017 40.535 696.347 46.2681 686.551 46.2681C682.724 46.2681 679.369 45.4806 676.676 44.5356V5.01831ZM682.598 40.6453C683.732 41.0075 685.228 41.1965 686.724 41.1965C692.158 41.1965 696.048 38.204 696.048 32.1086C696.048 26.9583 692.394 23.9185 687.921 23.9185C685.59 23.9185 683.795 24.5171 682.598 25.1786V40.6453ZM719.138 27.9191C719.138 25.0526 716.964 23.7295 714.035 23.7295C710.995 23.7295 708.601 24.6273 706.396 25.8873V20.737C709.034 19.3035 711.993 18.5663 714.995 18.595C720.791 18.595 724.918 20.989 724.918 27.6198V45.1341C722.398 45.7956 718.823 46.2051 715.83 46.2051C708.963 46.2051 703.939 44.126 703.939 38.141C703.939 32.7544 708.538 30.1241 716.192 30.1241H719.122V27.9191H719.138ZM719.138 34.0617H716.618C712.491 34.0617 709.798 35.2744 709.798 37.9677C709.798 40.7083 712.318 41.7793 715.893 41.7793C716.791 41.7793 718.051 41.669 719.122 41.4958V34.0774L719.138 34.0617ZM729.218 38.5032C731.526 40.3319 734.355 41.3798 737.297 41.4958C739.928 41.4958 741.66 40.598 741.66 38.5032C741.66 36.3455 740.101 35.5737 736.699 34.6759C731.186 33.4159 728.871 31.2109 728.871 26.5961C728.871 21.2253 732.935 18.595 738.321 18.595C741.314 18.595 743.692 19.2407 745.913 20.6268V26.0606C743.802 24.376 741.194 23.4348 738.494 23.383C735.927 23.383 734.557 24.6431 734.557 26.3756C734.557 28.1081 735.675 28.9901 738.731 29.8406C744.779 31.1479 747.393 33.4159 747.393 38.1882C747.393 43.7638 743.156 46.2681 737.423 46.2681C734.548 46.3255 731.713 45.584 729.233 44.126V38.5032H729.218ZM755.504 33.7782V33.8884C755.867 38.6135 759.914 41.1965 764.057 41.1965C767.695 41.1965 770.325 40.346 772.955 38.6135V43.811C770.561 45.4963 767.033 46.2681 763.631 46.2681C755.378 46.2681 749.771 41.0075 749.771 32.6442C749.771 24.2178 755.268 18.595 762.56 18.595C770.278 18.595 773.916 23.5563 773.916 30.7856V33.7782H755.489H755.504ZM768.356 29.9509C768.23 25.8243 766.199 23.5563 762.371 23.5563C758.969 23.5563 756.465 25.9503 755.678 29.9509H768.356Z" fill="#424147"/>
<path d="M896.227 21.1924L885.072 28.3131L896.227 35.4337L885.072 42.5544L873.916 35.3744L885.072 28.2537L873.916 21.1924L885.072 14.0718L896.227 21.1924ZM885.012 44.8092L896.168 37.6886L907.323 44.8092L896.168 51.9299L885.012 44.8092ZM896.227 35.3744L907.383 28.2537L896.227 21.1924L907.323 14.0718L918.479 21.1924L907.323 28.3131L918.479 35.4337L907.323 42.5544L896.227 35.3744Z" fill="#424147"/>
<path d="M927.199 21.1923H936.219C941.974 21.1923 946.721 24.5153 946.721 32.1106V33.7128C946.721 41.3675 942.271 44.8091 936.397 44.8091H927.199V21.1923ZM932.243 25.4647V40.4774H936.1C939.364 40.4774 941.559 38.3412 941.559 33.5941V32.348C941.559 27.6009 939.245 25.4647 935.922 25.4647H932.243ZM949.392 25.702H953.427L954.079 30.1524C954.851 27.1262 956.809 25.524 960.369 25.524H961.615V30.6272H959.538C955.444 30.6272 954.435 32.0513 954.435 36.0863V44.8685H949.451V25.702H949.392ZM962.624 35.671V35.1369C962.624 28.7283 966.718 25.2273 972.296 25.2273C977.993 25.2273 981.968 28.7283 981.968 35.1369V35.671C981.968 41.9609 978.111 45.3432 972.296 45.3432C966.125 45.2838 962.624 41.9609 962.624 35.671ZM976.865 35.6116V35.1369C976.865 31.5766 975.085 29.4404 972.237 29.4404C969.448 29.4404 967.608 31.3986 967.608 35.1369V35.6116C967.608 39.0533 969.389 41.0114 972.237 41.0114C975.085 40.9521 976.865 39.0533 976.865 35.6116ZM984.579 25.702H988.733L989.207 29.3217C990.216 26.8888 992.352 25.2273 995.497 25.2273C1000.36 25.2273 1003.57 28.7283 1003.57 35.1962V35.7303C1003.57 42.0202 1000.01 45.3432 995.497 45.3432C992.471 45.3432 990.394 43.9784 989.385 41.7828V51.4551H984.52L984.579 25.702ZM998.523 35.6116V35.1962C998.523 31.3986 996.565 29.4997 993.954 29.4997C991.166 29.4997 989.326 31.6359 989.326 35.1962V35.5523C989.326 38.9346 991.106 41.0708 993.895 41.0708C996.743 41.0114 998.523 39.1719 998.523 35.6116ZM1010.93 41.3081L1010.51 44.8091H1006.24V19.2935H1011.1V29.0843C1012.17 26.5921 1014.31 25.2273 1017.33 25.2273C1021.9 25.2867 1025.28 28.4316 1025.28 34.7809V35.3743C1025.28 41.7235 1022.08 45.3432 1017.21 45.3432C1014.01 45.2838 1011.93 43.8004 1010.93 41.3081ZM1020.18 35.3743V34.8995C1020.18 31.3986 1018.28 29.4404 1015.61 29.4404C1012.88 29.4404 1010.98 31.6359 1010.98 34.9589V35.3743C1010.98 38.9346 1012.82 41.0114 1015.55 41.0114C1018.46 41.0114 1020.18 39.1719 1020.18 35.3743ZM1027.42 35.671V35.1369C1027.42 28.7283 1031.52 25.2273 1037.09 25.2273C1042.79 25.2273 1046.77 28.7283 1046.77 35.1369V35.671C1046.77 41.9609 1042.85 45.3432 1037.09 45.3432C1030.92 45.2838 1027.42 41.9609 1027.42 35.671ZM1041.72 35.6116V35.1369C1041.72 31.5766 1039.94 29.4404 1037.09 29.4404C1034.3 29.4404 1032.46 31.3986 1032.46 35.1369V35.6116C1032.46 39.0533 1034.24 41.0114 1037.09 41.0114C1039.94 40.9521 1041.72 39.0533 1041.72 35.6116ZM1053.29 34.8995L1046.59 25.702H1052.34L1056.2 31.4579L1060.12 25.702H1065.81L1058.99 34.8402L1066.17 44.8091H1060.53L1056.14 38.4599L1051.87 44.8091H1045.99L1053.29 34.8995Z" fill="#424147"/>
</svg>
